#!OML:ASF H:\ManfredETheater\Project 1\Capture day 1\Session 1\subject.ASF
:FULLY-SPECIFIED
:DEGREES
108
root 5.13831 25.4882 -1.78347 -179.586 -11.7161 -185.4
lowerback 28.3048 2.62969 1.33829
upperback 6.18881 2.51956 0.204921
thorax -8.6267 0.626325 -1.33272
lowerneck -9.98872 -2.12867 -4.90483
upperneck 10.9101 -1.85995 -4.31055
head 4.93743 -1.49955 -0.685423
rclavicle 1.15295e-014 4.77083e-015
rhumerus -34.7587 1.82794 -49.5569
rradius 27.8731
rwrist 10.7126
rhand -21.6377 -0.960103
rfingers 7.12502
rthumb 4.7586 -30.8867
lclavicle 1.15295e-014 4.77083e-015
lhumerus -45.1241 13.2581 52.1843
lradius 40.8699
lwrist -3.77757
lhand -26.1276 -11.425
lfingers 7.12502
lthumb 0.422496 18.5543
rfemur -70.4027 -22.8504 26.3655
rtibia 97.4698
rfoot -20.5358 -11.5871
rtoes -22.0172
lfemur -56.4035 -3.81896 -8.90104
ltibia 51.982
lfoot -1.12163 -7.1919
ltoes -5.82348
109
root 5.02294 25.3587 -2.20409 -179.615 -12.0625 -185.303
lowerback 28.0606 2.52393 0.996253
upperback 6.16073 2.31206 0.320264
thorax -8.56598 0.544002 -0.931096
lowerneck -9.9936 -2.03498 -4.94705
upperneck 11.1181 -1.72795 -4.25557
head 5.00368 -1.44144 -0.654349
rclavicle -2.46493e-014 2.70347e-014
rhumerus -37.0958 2.03905 -48.0291
rradius 28.0179
rwrist 10.4423
rhand -21.441 -0.849995
rfingers 7.12502
rthumb 4.94853 -30.7722
lclavicle -2.46493e-014 2.70347e-014
lhumerus -46.3358 13.3216 49.3806
lradius 39.5544
lwrist -3.56482
lhand -25.9856 -10.9481
lfingers 7.12502
lthumb 0.559697 19.0309
rfemur -70.1188 -22.384 26.4001
rtibia 94.3989
rfoot -20.3859 -10.1471
rtoes -24.4346
lfemur -55.6106 -3.60966 -9.25477
ltibia 51.176
lfoot -0.689944 -6.90707
ltoes -5.84285
110
root 4.90886 25.2177 -2.6276 -179.669 -12.4199 -185.229
lowerback 27.7838 2.40978 0.621235
upperback 6.11449 2.0885 0.411716
thorax -8.50605 0.456415 -0.532774
lowerneck -10.0083 -1.93198 -4.95624
upperneck 11.3827 -1.58794 -4.1744
head 5.08881 -1.37791 -0.620287
rclavicle -2.5842e-014 -7.95139e-015
rhumerus -39.3818 2.34752 -46.4602
rradius 28.2704
rwrist 10.1463
rhand -21.3186 -0.755826
rfingers 7.12502
rthumb 5.06673 -30.6753
lclavicle -2.5842e-014 -7.95139e-015
lhumerus -47.5133 13.1485 46.4998
lradius 38.3073
lwrist -3.40228
lhand -25.868 -10.4075
lfingers 7.12502
lthumb 0.673207 19.5712
rfemur -69.5326 -21.916 26.2313
rtibia 91.1816
rfoot -19.9336 -8.8274
rtoes -26.4097
lfemur -54.7957 -3.41213 -9.61684
ltibia 50.3835
lfoot -0.204571 -6.65413
ltoes -5.90063
111
root 4.79565 25.0661 -3.05365 -179.751 -12.7892 -185.169
lowerback 27.4773 2.28298 0.237425
upperback 6.05142 1.84972 0.474069
thorax -8.44493 0.363336 -0.157995
lowerneck -10.0342 -1.82243 -4.93483
upperneck 11.685 -1.44478 -4.05957
head 5.18736 -1.30997 -0.580576
rclavicle -7.63333e-014 2.38542e-015
rhumerus -41.6241 2.76688 -44.876
rradius 28.6593
rwrist 9.71459
rhand -21.2797 -0.708314
rfingers 7.12502
rthumb 5.10428 -30.6268
lclavicle -7.63333e-014 2.38542e-015
lhumerus -48.6382 12.6925 43.6034
lradius 37.1814
lwrist -3.23955
lhand -25.7641 -9.829
lfingers 7.12502
lthumb 0.773554 20.1493
rfemur -68.6507 -21.434 25.8725
rtibia 87.8342
rfoot -19.1018 -7.693
rtoes -27.8813
lfemur -53.9504 -3.24985 -9.96646
ltibia 49.5887
lfoot 0.324112 -6.43366
ltoes -6.02902
112
root 4.68278 24.9043 -3.48224 -179.861 -13.17 -185.115
lowerback 27.1328 2.14299 -0.135307
upperback 5.97706 1.60006 0.507299
thorax -8.37125 0.266143 0.180276
lowerneck -10.0668 -1.70702 -4.87716
upperneck 12.0018 -1.30055 -3.92325
head 5.29119 -1.23826 -0.539718
rclavicle 3.53837e-014 3.10104e-014
rhumerus -43.8328 3.29556 -43.2957
rradius 29.2144
rwrist 9.06394
rhand -21.3165 -0.729634
rfingers 7.12502
rthumb 5.06879 -30.649
lclavicle 3.53837e-014 3.10104e-014
lhumerus -49.6849 11.9069 40.7743
lradius 36.2199
lwrist -3.02491
lhand -25.6868 -9.18955
lfingers 7.12502
lthumb 0.848291 20.7885
rfemur -67.4884 -20.9205 25.341
rtibia 84.3734
rfoot -17.8391 -6.78869
rtoes -28.8546
lfemur -53.0696 -3.13958 -10.2863
ltibia 48.7805
lfoot 0.88294 -6.24209
ltoes -6.27151
113
root 4.56959 24.7325 -3.9135 -180.004 -13.5571 -185.05
lowerback 26.7468 1.98935 -0.475336
upperback 5.89487 1.34489 0.516226
thorax -8.27901 0.166581 0.47287
lowerneck -10.1064 -1.58745 -4.79614
upperneck 12.3244 -1.15614 -3.76982
head 5.39781 -1.16383 -0.496977
rclavicle -4.05521e-014 6.36111e-015
rhumerus -46.0045 3.9441 -41.7337
rradius 29.9444
rwrist 8.15529
rhand -21.4069 -0.815667
rfingers 7.12502
rthumb 4.98148 -30.7371
lclavicle -4.05521e-014 6.36111e-015
lhumerus -50.636 10.7966 38.0726
lradius 35.4297
lwrist -2.76262
lhand -25.658 -8.53628
lfingers 7.12502
lthumb 0.876094 21.4417
rfemur -66.0593 -20.3508 24.6595
rtibia 80.8152
rfoot -16.1282 -6.11325
rtoes -29.3384
lfemur -52.1484 -3.09311 -10.5554
ltibia 47.9532
lfoot 1.45377 -6.07985
ltoes -6.66353
114
root 4.45544 24.5504 -4.34785 -180.183 -13.9572 -184.966
lowerback 26.3134 1.81756 -0.767573
upperback 5.80852 1.08244 0.5064
thorax -8.16131 0.0631461 0.717484
lowerneck -10.1362 -1.46104 -4.68896
upperneck 12.6377 -1.00841 -3.61969
head 5.49964 -1.08611 -0.458676
rclavicle 2.90226e-014 -1.66979e-014
rhumerus -48.1333 4.71071 -40.2
rradius 30.8427
rwrist 7.02352
rhand -21.5454 -0.949756
rfingers 7.12502
rthumb 4.84774 -30.8743
lclavicle 2.90226e-014 -1.66979e-014
lhumerus -51.5025 9.32961 35.5767
lradius 34.8455
lwrist -2.41935
lhand -25.6766 -7.94402
lfingers 7.12502
lthumb 0.85813 22.034
rfemur -64.3792 -19.7151 23.8457
rtibia 77.178
rfoot -14.0098 -5.61932
rtoes -29.3373
lfemur -51.1821 -3.12659 -10.7632
ltibia 47.1061
lfoot 2.0255 -5.9432
ltoes -7.18215
115
root 4.33964 24.3576 -4.78589 -180.408 -14.3717 -184.852
lowerback 25.8371 1.62632 -1.00269
upperback 5.72054 0.813307 0.487301
thorax -8.01819 -0.0445374 0.918539
lowerneck -10.1664 -1.32577 -4.56821
upperneck 12.9593 -0.850418 -3.48983
head 5.60402 -1.00473 -0.427907
rclavicle -3.22031e-014 -2.06736e-014
rhumerus -50.1951 5.58531 -38.6922
rradius 31.8703
rwrist 5.76442
rhand -21.7355 -1.08984
rfingers 7.12502
rthumb 4.6642 -31.0185
lclavicle -3.22031e-014 -2.06736e-014
lhumerus -52.3122 7.49873 33.3546
lradius 34.4885
lwrist -2.002
lhand -25.7588 -7.42078
lfingers 7.12502
lthumb 0.778662 22.5575
rfemur -62.4625 -19.006 22.9259
rtibia 73.4825
rfoot -11.5543 -5.26641
rtoes -28.9698
lfemur -50.1636 -3.24405 -10.9078
ltibia 46.2436
lfoot 2.58592 -5.83513
ltoes -7.82536
116
root 4.22191 24.154 -5.22829 -180.69 -14.8083 -184.707
lowerback 25.3238 1.41568 -1.17854
upperback 5.63419 0.537112 0.46478
thorax -7.84974 -0.15718 1.08088
lowerneck -10.1836 -1.18518 -4.44219
upperneck 13.2886 -0.686329 -3.38684
head 5.70869 -0.92288 -0.405665
rclavicle 2.44505e-014 1.11319e-014
rhumerus -52.1704 6.54079 -37.2071
rradius 32.9762
rwrist 4.50542
rhand -21.9635 -1.20042
rfingers 7.12502
rthumb 4.44399 -31.1338
lclavicle 2.44505e-014 1.11319e-014
lhumerus -53.1024 5.29242 31.4686
lradius 34.3786
lwrist -1.51105
lhand -25.8857 -7.01047
lfingers 7.12502
lthumb 0.656126 22.9683
rfemur -60.3219 -18.2195 21.922
rtibia 69.752
rfoot -8.87411 -5.02333
rtoes -28.3062
lfemur -49.0834 -3.45109 -10.9958
ltibia 45.3729
lfoot 3.13856 -5.74925
ltoes -8.56267
